<?xml version="1.0" encoding="UTF-8" standalone="no"?>
<svg
   xmlns:dc="http://purl.org/dc/elements/1.1/"
   xmlns:cc="http://creativecommons.org/ns#"
   xmlns:rdf="http://www.w3.org/1999/02/22-rdf-syntax-ns#"
   xmlns:svg="http://www.w3.org/2000/svg"
   xmlns="http://www.w3.org/2000/svg"
   viewBox="0 0 144 201.33333"
   height="201.33333"
   width="144"
   xml:space="preserve"
   id="svg2"
   version="1.1"><metadata
     id="metadata8"><rdf:RDF><cc:Work
         rdf:about=""><dc:format>image/svg+xml</dc:format><dc:type
           rdf:resource="http://purl.org/dc/dcmitype/StillImage" /></cc:Work></rdf:RDF></metadata><defs
     id="defs6" /><g
     transform="matrix(1.3333333,0,0,-1.3333333,0,201.33333)"
     id="g10"><g
       transform="scale(0.1)"
       id="g12"><path
         id="path14"
         style="fill:#e31921;fill-opacity:1;fill-rule:evenodd;stroke:none"
         d="m 504.102,774.18 21.097,-10.551 12.61,-5.93 56.531,-27.777 v 88.519 l -60.75,-29.531 -29.879,-14.34 0.391,-0.39" /><path
         id="path16"
         style="fill:#e31921;fill-opacity:1;fill-rule:evenodd;stroke:none"
         d="m 503.711,774.18 0.391,0.39 -32.422,15.59 -56.91,28.281 v -87.269 l 55.23,26.949 10.121,4.649 23.59,11.41" /><path
         id="path18"
         style="fill:#00aeee;fill-opacity:1;fill-rule:evenodd;stroke:none"
         d="m 765,1062.42 -8.398,8.87 -57.34,59.02 V 995.43 l 48.468,49.3 17.27,17.69" /><path
         id="path20"
         style="fill:#00aeee;fill-opacity:1;fill-rule:evenodd;stroke:none"
         d="m 765,1062.42 53.949,-55.62 13.082,-13.089 V 1130.31 L 765,1062.42" /><path
         id="path22"
         style="fill:#000000;fill-opacity:1;fill-rule:evenodd;stroke:none"
         d="m 791.559,1319.1 c -0.579,-10.43 -4.368,-19.1 -11.399,-26.13 -7,-6.72 -15.859,-10.27 -26.531,-10.55 -10.43,0.28 -19.098,3.83 -26.168,10.55 -7.262,7.03 -11.09,15.7 -11.332,26.13 h 75.43 m -44.258,-131.52 c 11.527,-37.93 16.719,-72.78 15.59,-104.49 l 113.398,108.71 c 2.77,21.09 6.012,42.69 9.652,64.92 5.899,36.8 7.297,69.14 4.219,96.95 -3.359,27.78 -9.262,51.68 -17.66,71.64 -8.16,19.92 -17.191,36.1 -27.031,48.48 -9.528,12.62 -17.809,21.76 -24.848,27.38 -7.031,5.9 -10.66,8.83 -10.973,8.83 l -6.718,-96.95 -270.59,-225.47 c 13.519,-22.46 29.379,-37.07 47.621,-43.83 18.277,-6.99 37.109,-8.83 56.519,-5.47 19.34,3.13 37.5,8.6 54.34,16.45 16.559,7.57 30.078,14.88 40.469,21.91 10.391,6.72 15.699,10.39 16.012,10.94" /><path
         id="path24"
         style="fill:#000000;fill-opacity:1;fill-rule:evenodd;stroke:none"
         d="m 802.93,717.66 20.23,58.199 13.91,-6.757 -2.109,-27.383 18.559,41.293 42.531,-32.461 -93.121,-32.891 m 49.3,217.93 -26.531,43.82 45.082,-41.711 -94.84,-180.398 76.289,178.289 M 621.719,854.262 c 3.672,4.218 6.871,8.398 9.691,12.617 25.578,-0.277 49.719,-0.277 72.5,0 -3.949,-10.938 -7.621,-22.231 -10.98,-33.719 -22.192,7.039 -45.942,14.031 -71.211,21.102 M 520.16,901.879 c 1.68,8.711 5.578,16.562 11.75,23.59 6.211,6.992 14.219,12.23 24.07,15.582 9.532,3.09 18.942,3.64 28.2,1.679 8.98,-1.679 17.031,-5.621 24.019,-11.789 -1.949,-8.711 -6.008,-16.562 -12.179,-23.64 -6.219,-6.992 -14.071,-12.18 -23.641,-15.539 -9.84,-3.09 -19.258,-3.672 -28.238,-1.684 -9.262,1.684 -17.262,5.582 -23.981,11.801 m -83.051,-10.117 c -9.57,3.359 -17.418,8.547 -23.629,15.539 -6.14,7.078 -10.242,14.929 -12.191,23.64 6.762,6.168 14.731,10.11 24.02,11.789 9.261,1.961 18.671,1.411 28.211,-1.679 9.601,-3.352 17.609,-8.59 24.058,-15.582 6.172,-7.028 10.121,-14.879 11.801,-23.59 -6.719,-6.219 -14.609,-10.117 -23.598,-11.801 -9.301,-1.988 -18.832,-1.406 -28.672,1.684 m 266.371,12.187 2.93,-29.5 c 0,-0.539 -0.121,-1.09 -0.39,-1.679 -21.961,1.679 -45,3.25 -69.141,4.652 1.711,3.906 2.961,7.887 3.82,11.797 22.192,5.082 43.09,9.961 62.781,14.73 m 272.258,-163.91 c -24.449,44.371 -44.258,85.391 -59.449,123.051 -15.16,37.648 -26.41,73.469 -33.711,107.461 -7.578,33.709 -11.957,67.149 -13.047,100.309 -4.531,-3.95 -10,-9.53 -16.441,-16.84 -6.762,-7.34 -13.91,-16.44 -21.488,-27.42 V 993.711 L 818.52,1006.8 C 806.172,986.84 794.34,961.988 783.121,932.23 771.602,902.148 762.34,866.602 755.309,825.59 748.012,784.531 744.488,737.191 744.77,683.551 c -0.282,0.277 -1.68,6.179 -4.219,17.699 -2.821,11.52 -5.75,27.699 -8.871,48.441 -3.36,20.539 -5.899,44.571 -7.578,72.11 0,0.269 0,0.66 0,1.25 -0.821,14.058 -1.25,28.668 -1.25,43.828 0,20.5 0.976,41.871 2.929,64.062 1.989,21.911 5.348,44.368 10.117,67.418 l -38.75,-37.5 5.903,-52.269 c -19.379,-2.539 -39.731,-5.621 -61.102,-9.25 0.281,1.398 0.43,2.648 0.43,3.781 0,5.899 -0.859,11.68 -2.539,17.27 h 0.43 c 0,0.308 -1.008,5.781 -2.969,16.449 -1.992,10.39 -5.621,24.019 -10.973,40.89 -5.59,17.149 -13.316,35.24 -23.168,54.34 -9.84,19.1 -22.34,37.38 -37.5,54.81 l -18.121,-95.669 c -14.879,3.359 -30.629,5.039 -47.23,5.039 -16.289,0 -31.719,-1.68 -46.36,-5.039 l -17.66,88.519 c -21.949,-25.86 -38.238,-50.2 -48.91,-72.93 -10.66,-22.46 -17.688,-41.288 -21.051,-56.491 -3.398,-15.149 -5.078,-24.719 -5.078,-28.629 -1.68,-6.211 -2.539,-12.379 -2.539,-18.559 0,-1.672 0.16,-3.351 0.43,-5.031 -40.743,6.711 -77.422,12.07 -110,15.969 32.578,-8.668 69.808,-17.539 111.679,-26.52 0.86,-3.398 1.95,-6.641 3.399,-9.73 -47.5,-2.5 -89.809,-5.579 -126.879,-9.258 38.48,-1.672 82.621,-2.223 132.351,-1.672 2.219,-3.641 4.918,-7.149 7.969,-10.508 -44.648,-12.66 -84.262,-24.922 -118.832,-36.68 37.383,6.989 79.961,16.289 127.692,27.809 10.121,-8.98 22.351,-16.602 36.679,-22.77 14.031,-6.179 29.653,-10.511 46.801,-13.05 0.82,-6.211 1.371,-13.36 1.68,-21.52 l 32.031,-15.59 29.879,14.34 c -0.539,7.301 -0.93,15.039 -1.25,23.199 16.332,2.5 31.332,6.563 45.121,12.192 13.48,5.898 25.269,13.078 35.391,21.519 27.847,-6.761 54.058,-12.66 78.789,-17.73 -8.981,-30.039 -13.59,-62.5 -13.871,-97.352 -0.309,-34.527 6.609,-73.039 20.628,-115.468 16.872,-50.579 27.262,-97.219 31.172,-139.918 3.981,-42.731 3.668,-80.903 -0.82,-114.653 -4.488,-33.711 -10.82,-62.219 -18.949,-85.539 -7.891,-23.601 -15.031,-41.609 -21.52,-53.949 -6.722,-12.34 -10.23,-18.551 -10.511,-18.551 h 325.75 C 992.852,176.84 977.109,153.789 956.328,133.551 936.41,114.18 912.23,97.5781 883.828,83.8281 858.871,71.4492 831.172,61.7617 800.82,54.7305 773.551,48.5508 745.738,44.6094 717.379,42.9297 688.98,41.25 660.59,41.8008 632.27,44.6094 571.84,51.3711 522.93,66.8398 485.59,90.9805 c -2,1.1289 -3.52,1.0078 -4.649,-0.4297 -1.14,-1.961 -0.98,-3.6406 0.43,-5.0391 17.969,-15.7422 40.309,-29.5312 66.988,-41.2929 24.18,-10.6993 50.86,-19.0977 80.082,-25.3086 32.887,-6.4493 66.168,-9.85161 99.879,-10.12114 26.989,0.26953 53.828,2.53904 80.508,6.76174 33.711,5.5781 65.043,14.6094 93.981,26.9883 33.441,14.6093 62.543,33.1211 87.269,55.582 13.752,12.3909 25.822,26.1409 36.252,41.3279 10.66,14.891 19.33,30.629 26.09,47.192 12.66,30.898 19.26,64.379 19.81,100.308 3.12,32.852 3.24,68.442 0.43,106.641 -2.5,38.48 -7.86,77.82 -16.02,118.012 -8.12,40.468 -18.98,80.199 -32.42,119.257 -13.52,38.789 -29.689,75.161 -48.482,109.18" /><path
         id="path26"
         style="fill:#000000;fill-opacity:1;fill-rule:evenodd;stroke:none"
         d="m 563.121,469.879 c 10.117,35.121 16.719,64.34 19.809,87.621 3.09,23.359 3.519,42.891 1.25,58.629 -1.95,15.43 -5.469,29.34 -10.551,41.723 l -42.539,-95.274 47.191,157.192 -15.551,9.289 -21.519,13.089 c -1.41,4.762 -2.539,10.082 -3.402,15.973 l -12.61,5.899 c -0.277,-12.34 -0.59,-24.411 -0.82,-36.211 -1.449,-33.707 -3.399,-65.508 -5.899,-95.27 -2.539,-29.488 -4.96,-55.629 -7.191,-78.398 -2.539,-22.461 -4.648,-40.161 -6.328,-53.09 -1.68,-12.93 -2.539,-19.41 -2.539,-19.41 -0.274,0 -0.434,0.199 -0.434,0.429 -0.269,4.219 -0.699,8.442 -1.25,12.66 l -0.429,-1.25 v 2.54 c 0,1.128 0,2.101 0,2.929 l -1.25,2.961 -5.508,61.102 v -1.684 c -2.77,30.082 -5.031,58.594 -6.711,85.551 -1.961,26.949 -3.52,50.582 -4.61,70.781 -1.14,20.27 -1.878,35.43 -2.109,45.539 L 470,758.121 c -0.551,-3.902 -1.172,-8 -1.719,-12.18 l -28.203,-16.882 -15.629,-9.289 47.231,-157.192 -37.11,82.621 c -8.98,-18.289 -20.23,-37.39 -33.711,-57.308 -13.789,-19.961 -30.199,-40.743 -49.3,-62.379 -26.719,-30.352 -46.481,-58.871 -59.411,-85.59 -13.199,-26.953 -21.207,-51.801 -24.058,-74.57 -2.781,-22.77 -2.11,-43.442 2.109,-61.954 4.211,-18.558 10.153,-34.847 17.731,-48.91 -25,2.231 -49.02,7.742 -72.071,16.453 -22.769,8.707 -43.98,20.11 -63.668,34.141 -19.652,14.328 -37.07,30.898 -52.2691,49.719 -15.1524,18.828 -27.5,39.07 -37.0703,60.711 -4.4922,10.66 -8.4024,21.758 -11.8008,33.277 -1.4024,4.531 -2.9297,10.121 -4.6016,16.871 -1.1797,5.32 -2.1094,10.82 -2.9687,16.41 -2.5391,22.192 -0.9805,44.141 4.6406,65.782 5.8984,21.367 15.75,41.019 29.5,58.988 13.4687,17.422 29.6489,31.91 48.4689,43.39 8.988,5.36 18.68,9.969 29.07,13.95 10.969,4.179 21.051,6.871 30.352,7.968 10.109,1.442 20.226,1.442 30.347,0 10.082,-1.41 19.801,-4.179 29.063,-8.398 18.828,-8.441 34.137,-21.09 45.937,-37.93 5.903,-8.16 10.551,-16.992 13.911,-26.558 3.671,-10.391 5.351,-19.813 5.07,-28.242 0,-9.54 -1.988,-18.829 -5.93,-27.821 C 300,534.488 294.531,526.762 287.5,520 c -6.762,-6.719 -14.77,-11.762 -24.02,-15.16 -9.57,-3.942 -18.558,-5.192 -27,-3.789 -9.25,1.679 -17.421,5.75 -24.41,12.23 -7.031,6.489 -11.8,14.18 -14.34,23.168 -0.539,1.992 -1.832,2.813 -3.781,2.531 -1.719,-0.539 -2.539,-1.789 -2.539,-3.781 1.988,-10.98 6.75,-20.508 14.328,-28.64 7.852,-8.438 17.422,-13.938 28.641,-16.481 10.391,-2.777 21.641,-2.226 33.711,1.723 11.25,3.359 21.359,8.711 30.351,16.008 9.289,7.851 16.758,17.152 22.34,27.812 5.348,10.668 8.598,22.078 9.731,34.149 0.816,11.21 -0.59,23.32 -4.223,36.21 -3.668,11.829 -8.59,22.93 -14.769,33.321 -13.508,21.64 -31.598,38.32 -54.372,50.148 -11.527,5.903 -23.707,10.121 -36.679,12.66 -12.617,2.539 -25.59,3.09 -38.789,1.68 -11.211,-0.859 -23.711,-3.559 -37.5,-8.008 -12.34,-3.941 -24.301,-8.98 -35.821,-15.191 C 85.0391,667.66 64.8398,650.98 47.6992,630.43 29.9609,609.059 17.1914,585.199 9.33984,558.789 1.21094,532.379 -1.64063,505.27 0.898438,477.422 1.76172,470.43 2.89063,463.551 4.30078,456.801 5.66016,449.219 7.23047,442.621 8.91016,436.988 12.3008,423.52 16.6406,410.59 21.9492,398.199 c 10.4297,-25.82 24.1797,-49.879 41.3321,-72.07 17.6992,-22.731 37.9297,-42.578 60.6987,-59.41 22.739,-17.11 47.469,-30.899 74.18,-41.289 18.52,-7.032 37.621,-12.34 57.309,-16.02 19.691,-3.629 39.609,-5.351 59.84,-5.07 -0.309,0 -0.309,0 0,0 4.222,0 8.562,0.148 13.089,0.43 h 249.454 c -3.903,2.261 -9.372,8 -16.403,17.3 -7.039,9.262 -13.09,23.871 -18.129,43.828 -5.082,19.653 -6.601,46.051 -4.648,79.223 2.269,33.43 10.43,75.039 24.449,124.758" /><path
         id="path28"
         style="fill:#000000;fill-opacity:1;fill-rule:evenodd;stroke:none"
         d="m 502.852,741.719 c 2.226,0 4.218,0.859 5.898,2.543 1.68,1.679 2.539,3.629 2.539,5.859 -0.551,5.348 -3.359,8.32 -8.437,8.859 -5.313,-0.539 -8.282,-3.511 -8.872,-8.859 0,-2.23 0.86,-4.18 2.54,-5.859 1.679,-1.684 3.789,-2.543 6.332,-2.543" /><path
         id="path30"
         style="fill:#000000;fill-opacity:1;fill-rule:evenodd;stroke:none"
         d="m 766.68,990.352 c 2.269,-0.551 4.492,0.16 6.761,2.109 2.219,1.988 3.789,4.769 4.61,8.439 0.859,3.67 0.859,6.76 0,9.3 -1.141,2.77 -2.821,4.6 -5.039,5.46 -2.543,0.28 -4.922,-0.58 -7.192,-2.54 -1.949,-1.99 -3.48,-4.64 -4.609,-8 -0.859,-3.67 -0.699,-6.882 0.43,-9.69 0.82,-2.809 2.5,-4.489 5.039,-5.078" /><path
         id="path32"
         style="fill:#000000;fill-opacity:1;fill-rule:evenodd;stroke:none"
         d="m 760.781,934.73 c 0.27,3.629 -0.429,6.75 -2.109,9.25 -1.402,2.54 -3.363,3.95 -5.902,4.219 -2.258,0 -4.329,-1.09 -6.321,-3.359 -1.679,-2.539 -2.66,-5.621 -2.929,-9.25 0,-3.68 0.699,-6.762 2.101,-9.301 1.367,-2.5 3.359,-3.91 5.899,-4.219 2.539,0 4.652,1.289 6.332,3.828 1.679,2.223 2.66,5.153 2.929,8.832" /><path
         id="path34"
         style="fill:#000000;fill-opacity:1;fill-rule:evenodd;stroke:none"
         d="m 744.34,874.879 c -2.231,0 -4.34,-1.09 -6.328,-3.399 -1.684,-2.5 -2.66,-5.582 -2.934,-9.21 0,-3.68 0.703,-6.758 2.113,-9.301 1.36,-2.539 3.36,-3.91 5.899,-4.219 2.531,0 4.64,1.289 6.32,3.789 1.68,2.262 2.66,5.191 2.969,8.871 0.242,3.629 -0.43,6.711 -2.109,9.25 -1.442,2.539 -3.391,3.949 -5.93,4.219" /><path
         id="path36"
         style="fill:#000000;fill-opacity:1;fill-rule:evenodd;stroke:none"
         d="m 502.852,686.051 c 2.226,0 4.218,0.859 5.898,2.539 1.68,1.68 2.539,3.68 2.539,5.898 -0.551,5.352 -3.359,8.282 -8.437,8.871 -5.313,-0.589 -8.282,-3.519 -8.872,-8.871 0,-2.218 0.86,-4.218 2.54,-5.898 1.679,-1.68 3.789,-2.539 6.332,-2.539" /><path
         id="path38"
         style="fill:#000000;fill-opacity:1;fill-rule:evenodd;stroke:none"
         d="m 502.852,620.738 c 2.226,0 4.218,0.864 5.898,2.543 1.68,1.68 2.539,3.629 2.539,5.899 -0.551,5.351 -3.359,8.281 -8.437,8.832 -5.313,-0.551 -8.282,-3.481 -8.872,-8.832 0,-2.27 0.86,-4.219 2.54,-5.899 1.679,-1.679 3.789,-2.543 6.332,-2.543" /><path
         id="path40"
         style="fill:#00aeee;fill-opacity:1;fill-rule:evenodd;stroke:none"
         d="m 834.961,742.148 2.539,26.954 -13.91,7.187 -20.27,-58.629 93.16,32.891 -42.96,32.461 -18.559,-40.864" /></g></g></svg>